<?xml version="1.0" encoding="UTF-8"?>
<svg id="Layer_2" data-name="Layer 2" xmlns="http://www.w3.org/2000/svg" xmlns:xlink="http://www.w3.org/1999/xlink" viewBox="0 0 78.67 72.67">
  <defs>
    <style>
      .cls-1 {
        fill: url(#linear-gradient-2);
      }

      .cls-2 {
        fill: url(#linear-gradient-4);
      }

      .cls-3 {
        fill: url(#linear-gradient-3);
      }

      .cls-4 {
        fill: url(#linear-gradient);
      }
    </style>
    <linearGradient id="linear-gradient" x1="39.34" y1="0" x2="39.34" y2="67.07" gradientUnits="userSpaceOnUse">
      <stop offset="0" stop-color="#2974ba"/>
      <stop offset=".23" stop-color="#1e6bb3"/>
      <stop offset=".6" stop-color="#1262ac"/>
      <stop offset="1" stop-color="#0f5faa"/>
    </linearGradient>
    <linearGradient id="linear-gradient-2" x1="39.34" y1="25.22" x2="39.34" y2="57.55" gradientUnits="userSpaceOnUse">
      <stop offset="0" stop-color="#fafbfc"/>
      <stop offset=".04" stop-color="#f5f6f7"/>
      <stop offset=".27" stop-color="#dbdbdc"/>
      <stop offset=".5" stop-color="#c8c8c9"/>
      <stop offset=".75" stop-color="#bdbdbd"/>
      <stop offset="1" stop-color="#bababa"/>
    </linearGradient>
    <linearGradient id="linear-gradient-3" x1="40.09" y1="25.22" x2="40.09" y2="72.67" gradientUnits="userSpaceOnUse">
      <stop offset="0" stop-color="#3ec6f1"/>
      <stop offset=".28" stop-color="#39b7e8"/>
      <stop offset=".63" stop-color="#36abe2"/>
      <stop offset="1" stop-color="#35a8e0"/>
    </linearGradient>
    <linearGradient id="linear-gradient-4" x1="0" y1="48.94" x2="77.16" y2="48.94" gradientUnits="userSpaceOnUse">
      <stop offset="0" stop-color="#32ace2"/>
      <stop offset=".32" stop-color="#2e99d4"/>
      <stop offset=".65" stop-color="#2b8dcc"/>
      <stop offset="1" stop-color="#2b8aca"/>
    </linearGradient>
  </defs>
  <g id="Layer_1-2" data-name="Layer 1">
    <g>
      <path class="cls-4" d="M78.67,24.15c-.03-.09-.07-.19-.12-.27-.36-.76-.95-1.44-1.73-1.9L41.52.64c-1.4-.85-3.12-.85-4.52,0L1.71,21.98c-.76.45-1.34,1.11-1.7,1.84H0v4.28c.2.4.47.79.8,1.13l26.03,26.91,9.27,9.58c1.75,1.81,4.58,1.81,6.32,0l9.33-9.64,25.97-26.84c.42-.43.74-.93.95-1.45v-3.63Z"/>
      <rect class="cls-1" x="8.25" y="25.22" width="62.17" height="32.33" rx="2.79" ry="2.79"/>
      <path class="cls-3" d="M78.67,25.22v43.39c0,1.27-.59,2.41-1.51,3.15-.7.57-1.58.91-2.55.91H4.06c-.97,0-1.86-.34-2.55-.91l37.83-22.81,39.33-23.73Z"/>
      <path class="cls-2" d="M77.16,71.76c-.7.57-1.58.91-2.55.91H4.06c-.97,0-1.86-.34-2.55-.91-.92-.74-1.51-1.88-1.51-3.15V25.22h.01s39.33,23.73,39.33,23.73l12.41,7.48,25.41,15.33Z"/>
    </g>
  </g>
</svg>