<?xml version="1.0" encoding="UTF-8"?>
<svg id="Layer_2" data-name="Layer 2" xmlns="http://www.w3.org/2000/svg" xmlns:xlink="http://www.w3.org/1999/xlink" viewBox="0 0 344.67 344.67">
  <defs>
    <style>
      .cls-1 {
        fill: #fff;
      }

      .cls-2 {
        fill: url(#linear-gradient);
      }
    </style>
    <linearGradient id="linear-gradient" x1="172.33" y1="0" x2="172.33" y2="344.67" gradientUnits="userSpaceOnUse">
      <stop offset="0" stop-color="#f04b23"/>
      <stop offset="1" stop-color="#ec1d24"/>
    </linearGradient>
  </defs>
  <g id="Layer_1-2" data-name="Layer 1">
    <rect class="cls-2" x="0" y="0" width="344.67" height="344.67" rx="172.33" ry="172.33"/>
    <g>
      <path class="cls-1" d="M71.47,159.84c-4.02-.16-7.95,1.22-11,3.86v-2.8h-11.29v47.21h11.29v-14.82c3.01,2.72,6.94,4.18,11,4.11.28,0,.55-.02.82-.03,9.73-.64,17.1-9.04,16.46-18.77.01-.23.02-.46.03-.69.21-9.77-7.54-17.86-17.31-18.06ZM69.13,187.79c-.1,0-.2,0-.29,0-4.85-.23-8.59-4.34-8.37-9.19,0-.06,0-.11,0-.17-.09-4.87,3.79-8.9,8.67-8.98.25,0,.49,0,.72.02,4.68.37,8.18,4.45,7.82,9.13.02.28.03.57.03.86-.06,4.67-3.9,8.4-8.57,8.34Z"/>
      <path class="cls-1" d="M109.81,159.96c-.83-.06-1.65-.06-2.48,0-10.31.68-18.12,9.6-17.43,19.91.68,10.32,9.6,18.13,19.92,17.44.29.01.58.02.88.01,10.3-.05,18.59-8.44,18.54-18.73,0-.26,0-.53-.01-.8-.43-10.28-9.12-18.27-19.4-17.84ZM118.35,178.6c.03.4.03.8,0,1.19-.33,4.77-4.47,8.37-9.24,8.05-4.77-.33-8.37-4.47-8.04-9.24-.03-.4-.03-.79,0-1.19.33-4.77,4.47-8.37,9.23-8.05,4.77.33,8.37,4.46,8.05,9.24Z"/>
      <rect class="cls-1" x="132.97" y="145.51" width="11.33" height="50.82"/>
      <path class="cls-1" d="M176.44,163.7c-3.08-2.56-7.01-3.86-11-3.66-.23,0-.46.02-.69.03-9.75.59-17.18,8.98-16.59,18.73-.02.27-.03.54-.03.82-.18,9.74,7.57,17.8,17.32,17.98,4.06.07,7.99-1.39,11-4.11v2.84h11.29v-35.43h-11.29v2.8ZM167.78,187.79c-.29,0-.57,0-.86-.03-4.66-.41-8.09-4.52-7.69-9.17-.02-.24-.03-.48-.02-.72.03-4.69,3.87-8.47,8.56-8.43.06,0,.11,0,.17,0,4.87.18,8.67,4.28,8.49,9.15,0,.1,0,.2,0,.3.06,4.85-3.82,8.83-8.67,8.9Z"/>
      <path class="cls-1" d="M266.58,137.79c-15.26,0-28.34,9.32-33.88,22.58h-13.9c-.17,0-.32.07-.44.17-.29-.05-.58-.11-.87-.13-5.15-.09-9.91,2.72-12.32,7.27v-6.77h-11.45v35.43h11.17v-11.09c0-9.15,4.43-13.26,12.32-13.26h2.05v-.04h10.73c-.06.84-.1,1.69-.1,2.54,0,20.27,16.43,36.7,36.7,36.7s36.7-16.43,36.7-36.7-16.43-36.7-36.7-36.7ZM259.11,185.08h-5.25v-1.31c-1.42,1.22-3.25,1.87-5.13,1.8-4.53.01-8.22-3.66-8.23-8.19,0-.18.01-.37.02-.55-.27-4.53,3.18-8.42,7.7-8.69.17-.01.34-.02.51-.01,1.88-.06,3.71.58,5.13,1.8v-8.49h5.25v23.64ZM270.41,186.31c-5,.22-9.25-3.65-9.47-8.65-.23-5,3.64-9.25,8.65-9.47.16,0,.32,0,.48,0,4.76-.21,8.78,3.48,8.98,8.24.01.14.01.28.01.42.22,5.01-3.65,9.25-8.66,9.47ZM288.46,185.53c-3.24.38-6.18-1.93-6.57-5.17-.06-.46-.06-.93,0-1.39v-6.2h-2.84v-4.11h3v-4.92h5.22v4.88h4.84v4.11h-4.84v5.7c0,1.72.82,2.42,2.17,2.42.85-.04,1.68-.27,2.43-.66l1.19,4.1c-1.39.83-2.98,1.25-4.6,1.23Z"/>
      <path class="cls-1" d="M269.91,172.73c-2.27,0-4.1,1.84-4.1,4.1s1.84,4.1,4.1,4.1c2.23-.05,4.02-1.87,4.02-4.1h.08c0-2.27-1.84-4.1-4.1-4.1Z"/>
      <path class="cls-1" d="M249.75,172.77c-2.27,0-4.1,1.84-4.1,4.1s1.84,4.1,4.1,4.1,4.1-1.84,4.1-4.1-1.84-4.1-4.1-4.1Z"/>
    </g>
  </g>
</svg>