<?xml version="1.0" encoding="UTF-8"?>
<svg id="Layer_2" data-name="Layer 2" xmlns="http://www.w3.org/2000/svg" viewBox="0 0 108.77 30.76">
  <defs>
    <style>
      .cls-1 {
        fill: #fff;
      }
    </style>
  </defs>
  <g id="Layer_1-2" data-name="Layer 1">
    <g>
      <path class="cls-1" d="M73,5.83c-3.95.47-5.7,4.84-9.09,6.36v-2.56c.34-.38.86-.1,1.35-.31.1-.04,1.55-1.32,1.63-1.42.32-.43.22-1.06.19-1.57l-.19-.23h-2.84c-.21-2.08,1.24-2.59,3.05-2.36V.42c-3.7-.83-7.07,1.82-6.65,5.68l-1.88.13-.06,3.2c.41.08,1.78-.21,1.92.23-.09,1.28.19,2.91.03,4.14-.1.72-1.7,1.24-2.37,1.51-2.91,1.2-9.05,3.27-10.39-.9h9.77c.62-1.07.3-3.05-.1-4.19-2.36-6.77-12.56-5.47-13.27,1.77-.59,6.06,4.37,9.19,9.84,7.83h0s0,0,.01,0c.16-.04.32-.08.47-.13.06-.02.16-.05.27-.1,1.07-.34,3.18-1.04,5.75-2.11.02,1.33-.07,3.33-1.66,3.66-.64.13-1.34-.12-1.81.27v2.77c.77.41,2.03.33,2.92.15,4.01-.83,4.19-5.05,4.05-8.42,1.04-.5,2.11-1.06,3.18-1.66,0,.12,0,.23.02.3,1.59,7.4,12.04,7.39,13.73.28,1.2-5.06-2.66-9.61-7.89-9ZM54.21,11.64h-6.3l-.15-.29c.8-3.29,6.04-3.17,6.46.29ZM76.47,15.75c-1.4,1.31-3.85,1.19-5.08-.3-2.32-2.82.38-7.46,4.07-5.87,2.28.99,2.76,4.53,1.01,6.17Z"/>
      <path class="cls-1" d="M10.57,6.1l-.14,1.25C6.96,4.32,1.95,5.9.46,10.18c-2.27,6.48,4.36,12.8,9.98,7.83.12,1.77-.05,3.42-1.89,4.14-1.87.73-3.85.1-4.83-1.63l-2.83,1.97c2.93,5.1,12.35,3.92,13.01-2.33V6.3l-.21-.21h-3.12ZM6.08,16.34c-3.37-.47-3.52-6.63.3-7.15,5.3-.72,5.6,7.97-.3,7.15Z"/>
      <path class="cls-1" d="M38.91.69l-.35.21v6.44c-.88-.78-1.92-1.41-3.12-1.52-6.41-.59-9.05,7-5.8,11.76,1.94,2.85,6.38,3.52,8.85.98.36.29.17.82.21,1.24h3.26l.21-.21V.9c0-.71-2.74-.07-3.26-.21ZM35.29,16.75c-4.6.1-4.71-7.26-.36-7.57,4.75-.34,4.87,7.47.36,7.57Z"/>
      <path class="cls-1" d="M100.73,5.86c-4.87.59-7.32,6.31-5.21,10.53,2.61,5.23,10.51,4.94,12.69-.56,2.05-5.2-1.78-10.66-7.48-9.97ZM102.46,16.59c-5.11.74-5.43-6.6-1.45-7.27,5.04-.86,5.58,6.67,1.45,7.27Z"/>
      <path class="cls-1" d="M20,0h-3.26l-.21.21v19.4l.21.21h3.26c-.04-.14.14-.3.14-.35V.35s-.18-.21-.14-.35Z"/>
      <path class="cls-1" d="M83.17,0c.04.14-.14.3-.14.35v19.12s.18.21.14.35h3.26l.21-.21V.21l-.21-.21h-3.26Z"/>
      <path class="cls-1" d="M92.52,6.1h-3.05l-.21.21v13.3l.21.21h3.19l.21-.21V6.44s-.32-.35-.35-.35Z"/>
      <polygon class="cls-1" points="22.97 6.1 22.77 6.3 22.77 19.81 26.02 19.81 26.23 19.6 26.23 6.3 26.02 6.1 22.97 6.1"/>
      <path class="cls-1" d="M23.98.31c-3.04.56-1.45,5.86,1.66,4.01,2.02-1.2.85-4.47-1.66-4.01Z"/>
      <path class="cls-1" d="M90.47.31c-2.19.45-2.15,4.29.54,4.35,3.12.06,2.8-5.04-.54-4.35Z"/>
    </g>
    <g>
      <path class="cls-1" d="M69.51,26.32c.32.32.48.73.48,1.23s-.16.92-.48,1.24c-.32.32-.7.48-1.14.48-.5,0-.89-.16-1.18-.49v.4h-.68v-5.05h.68v2.2c.29-.33.69-.49,1.18-.49.44,0,.82.16,1.13.49ZM69.03,28.36c.2-.2.3-.47.3-.81s-.1-.61-.3-.81-.46-.31-.76-.31c-.28,0-.53.1-.75.31-.21.21-.32.48-.32.8s.11.6.32.8c.21.21.46.31.75.31.31,0,.56-.1.76-.31Z"/>
      <path class="cls-1" d="M71.52,30.76h-.76l.74-1.65-1.4-3.18h.76l1.01,2.36,1.05-2.36h.76l-2.15,4.84Z"/>
      <path class="cls-1" d="M78.63,26.32c.32.32.48.73.48,1.23s-.16.92-.48,1.24c-.32.32-.7.48-1.14.48-.5,0-.89-.16-1.18-.49v1.98h-.68v-4.83h.68v.4c.29-.33.69-.49,1.18-.49.44,0,.82.16,1.13.49ZM78.15,28.36c.2-.2.3-.47.3-.81s-.1-.61-.3-.81-.46-.31-.76-.31c-.28,0-.53.1-.75.31-.21.21-.32.48-.32.8s.11.6.32.8c.21.21.46.31.75.31.31,0,.56-.1.76-.31Z"/>
      <path class="cls-1" d="M82.45,26.33c.33.32.5.73.5,1.22s-.17.91-.5,1.23-.75.48-1.23.48-.9-.16-1.24-.48c-.34-.32-.51-.73-.51-1.23s.17-.91.51-1.22c.34-.32.75-.48,1.24-.48s.9.16,1.24.48ZM81.96,28.36c.21-.21.32-.48.32-.8s-.11-.6-.32-.8c-.21-.21-.47-.31-.75-.31s-.55.1-.76.31c-.21.21-.32.48-.32.8s.11.6.32.8c.21.21.47.31.76.31s.54-.1.75-.31Z"/>
      <path class="cls-1" d="M84.2,28.25c0,.11.04.21.12.28.08.07.18.1.3.1s.25-.03.39-.1l.13.57c-.21.11-.42.17-.64.17-.29,0-.53-.09-.71-.27-.18-.18-.27-.42-.27-.72v-4.16h.68v4.12Z"/>
      <path class="cls-1" d="M88.01,26.16c.25.21.37.52.37.91v2.12h-.65v-.37c-.28.31-.65.47-1.11.47-.36,0-.66-.1-.88-.29-.22-.19-.33-.44-.33-.75s.11-.56.34-.75c.23-.19.55-.28.96-.28h1.02v-.1c0-.21-.06-.38-.19-.5-.13-.12-.29-.18-.5-.18-.46,0-.72.19-.79.56l-.65-.14c.06-.31.21-.55.47-.74.26-.19.57-.28.93-.28.42,0,.76.11,1.01.32ZM87.44,28.46c.2-.17.29-.38.29-.62v-.1h-1.03c-.2,0-.35.04-.47.13-.11.09-.17.21-.17.36s.06.27.18.36c.12.09.28.13.48.13.28,0,.51-.08.71-.26Z"/>
      <path class="cls-1" d="M91.3,25.91l-.05.66s-.1,0-.19,0c-.4,0-.71.13-.92.39s-.31.62-.31,1.08v1.15h-.68v-3.25h.68v.7c.3-.49.71-.73,1.24-.73.1,0,.17,0,.23.03Z"/>
      <path class="cls-1" d="M94.89,29.18h-.69v-.4c-.29.33-.68.49-1.18.49-.44,0-.82-.16-1.14-.49s-.48-.73-.48-1.23.16-.91.48-1.23.7-.49,1.14-.49c.49,0,.89.16,1.18.49v-2.2h.69v5.05ZM93.88,28.36c.21-.21.32-.47.32-.81s-.11-.6-.32-.8c-.21-.21-.46-.31-.75-.31-.3,0-.55.1-.75.31s-.3.47-.3.81.1.61.3.81.45.31.75.31c.28,0,.53-.1.75-.31Z"/>
      <path class="cls-1" d="M98.49,26.33c.33.32.5.73.5,1.22s-.17.91-.5,1.23-.75.48-1.23.48-.9-.16-1.24-.48c-.34-.32-.51-.73-.51-1.23s.17-.91.51-1.22c.34-.32.75-.48,1.24-.48s.9.16,1.24.48ZM98.01,28.36c.21-.21.32-.48.32-.8s-.11-.6-.32-.8c-.21-.21-.47-.31-.75-.31s-.55.1-.76.31c-.21.21-.32.48-.32.8s.11.6.32.8c.21.21.47.31.76.31s.54-.1.75-.31Z"/>
      <path class="cls-1" d="M101.79,29.02c-.28.17-.55.25-.81.25-.36,0-.65-.1-.86-.31-.21-.2-.31-.5-.31-.9v-1.58h-.7v-.56h.7v-1.14h.68v1.14h1.12v.56h-1.12v1.54c0,.2.05.35.14.45.1.1.23.15.39.15.19,0,.37-.06.55-.18l.21.57Z"/>
      <path class="cls-1" d="M102.73,28.49c.08.08.12.18.12.29s-.04.22-.12.3-.18.12-.3.12-.23-.04-.31-.12-.12-.18-.12-.3.04-.21.12-.29.19-.12.31-.12.22.04.3.12Z"/>
      <path class="cls-1" d="M104.24,24.65c.08.08.12.18.12.3s-.04.22-.12.3-.18.12-.31.12-.23-.04-.32-.12c-.08-.08-.12-.18-.12-.3s.04-.22.12-.3c.08-.08.19-.12.32-.12s.23.04.31.12ZM103.59,29.18v-3.25h.68v3.25h-.68Z"/>
      <path class="cls-1" d="M107.98,26.22c.24.26.36.59.36.99v1.97h-.69v-1.83c0-.27-.07-.48-.21-.64-.14-.16-.33-.24-.56-.24-.3,0-.54.1-.71.31s-.26.51-.26.91v1.5h-.68v-3.25h.68v.4c.28-.33.65-.49,1.13-.49.39,0,.7.13.95.38Z"/>
    </g>
  </g>
</svg>