<?xml version="1.0" encoding="UTF-8"?>
<svg id="Layer_2" data-name="Layer 2" xmlns="http://www.w3.org/2000/svg" xmlns:xlink="http://www.w3.org/1999/xlink" viewBox="0 0 80.27 80.61">
  <defs>
    <style>
      .cls-1 {
        fill: #fff;
      }

      .cls-1, .cls-2, .cls-3 {
        fill-rule: evenodd;
      }

      .cls-2 {
        fill: url(#linear-gradient-2);
      }

      .cls-3 {
        fill: url(#linear-gradient);
      }
    </style>
    <linearGradient id="linear-gradient" x1="40.13" y1="0" x2="40.13" y2="80.61" gradientUnits="userSpaceOnUse">
      <stop offset="0" stop-color="#fff"/>
      <stop offset="1" stop-color="#828282"/>
    </linearGradient>
    <linearGradient id="linear-gradient-2" x1="40.29" y1="8.41" x2="40.29" y2="71.54" gradientUnits="userSpaceOnUse">
      <stop offset="0" stop-color="#62cc3a"/>
      <stop offset="1" stop-color="#1aa54a"/>
    </linearGradient>
  </defs>
  <g id="Layer_1-2" data-name="Layer 1">
    <g>
      <path class="cls-1" d="M2,78.61l5.39-19.67c-3.32-5.76-5.07-12.29-5.07-18.98.01-20.93,17.04-37.96,37.97-37.96,10.16,0,19.69,3.96,26.86,11.13,7.17,7.18,11.12,16.71,11.11,26.86,0,20.93-17.04,37.96-37.97,37.96,0,0,0,0,0,0h-.02c-6.35,0-12.6-1.6-18.15-4.62l-20.13,5.28Z"/>
      <path class="cls-1" d="M2,79.61c-.26,0-.52-.1-.71-.3-.25-.25-.35-.62-.25-.97l5.28-19.27c-3.27-5.81-5-12.41-4.99-19.11C1.33,18.48,18.81,1,40.29,1c10.42,0,20.21,4.06,27.57,11.43,7.36,7.37,11.41,17.15,11.4,27.56,0,21.48-17.49,38.96-38.97,38.96-6.38,0-12.69-1.58-18.29-4.55l-19.75,5.18c-.08.02-.17.03-.25.03Z"/>
      <path class="cls-3" d="M40.29,2c10.16,0,19.69,3.96,26.86,11.13,7.17,7.18,11.12,16.71,11.11,26.86,0,20.93-17.04,37.96-37.97,37.96h-.02c-6.35,0-12.6-1.6-18.15-4.62l-20.13,5.28,5.39-19.67c-3.32-5.76-5.07-12.29-5.07-18.98.01-20.93,17.04-37.96,37.97-37.96M40.29,0h0C18.26,0,.33,17.92.32,39.96c0,6.73,1.7,13.37,4.92,19.24L.07,78.08c-.19.69,0,1.43.51,1.93.38.38.89.59,1.42.59.17,0,.34-.02.51-.07l19.37-5.08c5.66,2.94,12,4.49,18.39,4.49,22.05,0,39.98-17.93,39.99-39.96,0-10.68-4.15-20.72-11.7-28.27C61.02,4.17,50.98,0,40.29,0h0Z"/>
      <path class="cls-2" d="M62.62,17.66c-5.96-5.96-13.88-9.25-22.31-9.25-17.41,0-31.57,14.15-31.57,31.55,0,5.96,1.67,11.77,4.83,16.79l.75,1.19-3.19,11.64,11.95-3.13,1.15.68c4.84,2.88,10.4,4.4,16.06,4.4h.01c17.4,0,31.55-14.15,31.56-31.55,0-8.43-3.28-16.36-9.24-22.32Z"/>
      <path class="cls-1" d="M30.8,24.09c-.71-1.58-1.46-1.61-2.14-1.64-.55-.02-1.19-.02-1.82-.02s-1.66.24-2.53,1.19c-.87.95-3.32,3.24-3.32,7.91s3.4,9.18,3.87,9.81,6.56,10.52,16.21,14.32c8.01,3.16,9.65,2.53,11.39,2.37,1.74-.16,5.61-2.29,6.4-4.51.79-2.22.79-4.11.55-4.51-.24-.4-.87-.63-1.82-1.11s-5.61-2.77-6.48-3.09c-.87-.32-1.5-.47-2.14.48-.63.95-2.45,3.09-3,3.72-.55.63-1.11.71-2.06.24-.95-.48-4-1.48-7.63-4.71-2.82-2.51-4.72-5.62-5.28-6.57-.55-.95-.06-1.46.42-1.94.43-.43.95-1.11,1.42-1.66.47-.55.63-.95.95-1.58.32-.63.16-1.19-.08-1.66-.23-.48-2.08-5.17-2.92-7.04Z"/>
    </g>
  </g>
</svg>